<?xml version="1.0" encoding="utf-8"?>
<!-- Generator: Adobe Illustrator 27.0.0, SVG Export Plug-In . SVG Version: 6.00 Build 0)  -->
<svg version="1.1" id="Warstwa_1" xmlns="http://www.w3.org/2000/svg" xmlns:xlink="http://www.w3.org/1999/xlink" x="0px" y="0px"
	 viewBox="0 0 34.9 34.9" style="enable-background:new 0 0 34.9 34.9;" xml:space="preserve">
<style type="text/css">
	.st0{fill:#1D1D1B;}
</style>
<path class="st0" d="M33.6,22l1.3-14.7c0-0.3-0.1-0.6-0.3-0.8c-0.2-0.2-0.5-0.3-0.7-0.3L7.1,6L6.5,0.9C6.4,0.4,6,0,5.5,0H1
	C0.4,0,0,0.4,0,1s0.4,1,1,1h3.6l2.8,25.1c-1.7,0.5-2.9,2-2.9,3.8c0,2.2,1.8,4,4,4s4-1.8,4-4c0-0.7-0.2-1.4-0.6-2H26
	c-0.3,0.6-0.6,1.3-0.6,2c0,2.2,1.8,4,4,4s4-1.8,4-4s-1.8-4-4-4c0,0,0,0,0,0H9.4l-0.4-4h23.7C33.1,23,33.5,22.6,33.6,22z M10.5,30.9
	c0,1.1-0.9,2-2,2c-1.1,0-2-0.9-2-2c0-1.1,0.9-2,2-2c0,0,0,0,0,0h0C9.6,29,10.5,29.8,10.5,30.9z M31.4,30.9c0,1.1-0.9,2-2,2
	c-1.1,0-2-0.9-2-2c0-1.1,0.9-2,2-2h0c0,0,0,0,0,0C30.5,28.9,31.4,29.8,31.4,30.9z M8.7,21L7.3,8l25.6,0.3L31.7,21H8.7z"/>
</svg>
